<?xml version="1.0" encoding="UTF-8"?>
<svg id="Layer_1" xmlns="http://www.w3.org/2000/svg" version="1.1" xmlns:xlink="http://www.w3.org/1999/xlink" viewBox="0 0 1600 393.82">
  <!-- Generator: Adobe Illustrator 29.2.1, SVG Export Plug-In . SVG Version: 2.1.0 Build 116)  -->
  <defs>
    <style>
      .st0 {
        fill: url(#linear-gradient2);
      }

      .st1 {
        fill: #fff;
      }

      .st2 {
        fill: url(#linear-gradient1);
      }

      .st3 {
        fill: url(#linear-gradient3);
      }

      .st4 {
        fill: url(#linear-gradient);
      }
    </style>
    <linearGradient id="linear-gradient" x1="-.5" y1="128.68" x2="279.11" y2="128.68" gradientUnits="userSpaceOnUse">
      <stop offset="0" stop-color="#f695be"/>
      <stop offset=".34" stop-color="#e258b7"/>
      <stop offset=".67" stop-color="#a16cf2"/>
      <stop offset="1" stop-color="#5ca9d9"/>
    </linearGradient>
    <linearGradient id="linear-gradient1" x1="-2.74" y1="209.87" x2="282.07" y2="209.87" gradientUnits="userSpaceOnUse">
      <stop offset="0" stop-color="#5ca9d9"/>
      <stop offset=".33" stop-color="#a16cf2"/>
      <stop offset=".66" stop-color="#e258b7"/>
      <stop offset="1" stop-color="#f695be"/>
    </linearGradient>
    <linearGradient id="linear-gradient2" x1="1045.78" y1="321.21" x2="1511.64" y2="-92.73" xlink:href="#linear-gradient"/>
    <linearGradient id="linear-gradient3" x1="1168.67" y1="459.51" x2="1634.52" y2="45.57" xlink:href="#linear-gradient"/>
  </defs>
  <g>
    <path class="st4" d="M274.22,48.49l-73.28,126.93-25.33,43.86-5.08,8.81c-7.06,12.21-19.39,18.32-31.73,18.32-8.7,0-17.39-3.04-24.24-9.11l24.24-41.97,11.49-19.9,25.32-43.86,44.33-76.78H57.66l44.33,76.78-25.33,43.86L3.39,48.49C-6.25,31.8,5.8,10.94,25.08,10.94h227.45c19.28,0,31.33,20.86,21.69,37.56Z"/>
    <path class="st2" d="M274.22,302.36l-73.28-126.93-25.33,43.86,44.33,76.79H57.66l44.33-76.79,25.32-43.85h0s11.49-19.9,11.49-19.9l16.33-28.29c4.5,2.64,9.84,3.8,15.26,3.08,1.84-.25,3.01-2.1,2.51-3.89l-5.71-20.09-4.43-15.59c-2.28-8-10.61-12.65-18.61-10.38l-10.84,3.08-24.83,7.06c-1.78.51-2.75,2.48-1.99,4.17,2.18,4.87,5.86,8.73,10.33,11.19l-14.82,25.69-25.33,43.86L3.39,302.36c-9.64,16.7,2.41,37.57,21.69,37.57h227.45c19.28,0,31.33-20.87,21.69-37.57Z"/>
  </g>
  <g>
    <g>
      <path class="st0" d="M1286.14,189.88c0,25.96-5.36,45.03-16.06,57.21-10.71,12.18-26.23,18.27-46.57,18.27-41.75,0-62.63-25.15-62.63-75.47V34.93h-2.41c-34.59,0-62.62,28.04-62.62,62.62v94.74c0,41.21,11.17,72.93,33.52,95.14,22.34,22.22,53.59,33.32,93.74,33.32s71.39-11.1,93.74-33.32c22.34-22.21,33.52-53.93,33.52-95.14V34.93h-64.23v154.96Z"/>
      <path class="st3" d="M1585.95,149.54c-9.37-16.72-22.28-29.71-38.74-38.94-16.46-9.23-34.73-13.85-54.8-13.85-29.71,0-52.33,9.37-67.85,28.1v-24.89h-59.81v293.86h0c34.59,0,62.62-28.04,62.62-62.62v-38.14c15.79,17.4,37.47,26.1,65.04,26.1,20.07,0,38.34-4.62,54.8-13.85,16.46-9.23,29.37-22.21,38.74-38.94,9.37-16.72,14.05-36.19,14.05-58.41s-4.69-41.68-14.05-58.41ZM1521.12,251.51c-10.3,10.84-23.48,16.25-39.54,16.25s-29.24-5.42-39.54-16.25c-10.31-10.84-15.46-25.36-15.46-43.56s5.15-32.72,15.46-43.56c10.3-10.84,23.48-16.26,39.54-16.26s29.24,5.42,39.54,16.26c10.3,10.84,15.46,25.36,15.46,43.56s-5.16,32.72-15.46,43.56Z"/>
    </g>
    <g>
      <path class="st1" d="M606.22,9.64c-7.23-6.42-16.6-9.64-28.1-9.64s-20.88,3.35-28.1,10.04c-7.23,6.69-10.84,14.99-10.84,24.89s3.61,18.2,10.84,24.89c7.23,6.69,16.59,10.04,28.1,10.04s20.88-3.41,28.1-10.24c7.23-6.82,10.84-15.45,10.84-25.89,0-9.63-3.61-17.66-10.84-24.09Z"/>
      <path class="st1" d="M546.81,99.96h0v215.98h62.63v-153.35c0-34.59-28.04-62.62-62.62-62.62Z"/>
      <path class="st1" d="M761,96.75c-14.72,0-28.24,2.48-40.55,7.43-12.31,4.95-22.62,11.98-30.91,21.08v-25.29h-59.82v215.98h62.63v-106.79c0-19.27,4.68-33.78,14.05-43.56,9.37-9.77,21.94-14.65,37.74-14.65,14.18,0,25.02,4.22,32.52,12.65,7.49,8.43,11.24,21.21,11.24,38.34v51.39c0,34.59,28.04,62.62,62.62,62.62h0v-123.64c0-31.58-8.23-55.4-24.69-71.46-16.46-16.06-38.07-24.08-64.83-24.08Z"/>
      <path class="st1" d="M1032.28,110.4c-17.13-9.1-36.27-13.65-57.4-13.65s-41.29,4.75-58.81,14.25c-17.53,9.5-31.31,22.75-41.35,39.75-10.04,17-15.05,36.07-15.05,57.2s5.08,40.55,15.25,57.41c10.17,16.86,24.62,30.04,43.36,39.54,18.73,9.5,40.27,14.25,64.63,14.25,39.07,0,68.78-11.64,89.12-34.93l-14.96-16.22c-9.24-10.02-24.11-13.16-36.24-6.92-2.1,1.08-4.23,2.04-6.41,2.87-8.7,3.35-18.67,5.02-29.91,5.02-16.33,0-29.98-3.88-40.95-11.64-10.98-7.76-17.93-18.33-20.87-31.71h163.39c.8-10.44,1.21-16.06,1.21-16.86,0-22.48-4.89-42.21-14.65-59.21-9.77-16.99-23.22-30.04-40.35-39.14ZM921.88,189.08c2.14-13.91,8.03-24.89,17.66-32.92,9.64-8.03,21.54-12.04,35.73-12.04s25.69,4.09,35.33,12.24c9.64,8.16,15.52,19.07,17.66,32.72h-106.38Z"/>
      <path class="st1" d="M389.84,262.95V34.93h-2.41c-34.59,0-62.62,28.04-62.62,62.62v218.39h152.95c29.27,0,52.99-23.73,52.99-52.99h0s-140.91,0-140.91,0Z"/>
    </g>
  </g>
</svg>